<?xml version="1.0" standalone="no"?>
<!DOCTYPE svg PUBLIC "-//W3C//DTD SVG 20010904//EN"
 "http://www.w3.org/TR/2001/REC-SVG-20010904/DTD/svg10.dtd">
<svg version="1.0" xmlns="http://www.w3.org/2000/svg"
 width="300.000000pt" height="300.000000pt" viewBox="0 0 300.000000 300.000000"
 preserveAspectRatio="xMidYMid meet">
<metadata>
Created by potrace 1.14, written by Peter Selinger 2001-2017
</metadata>
<g transform="translate(0.000000,300.000000) scale(0.100000,-0.100000)"
fill="#000000" stroke="none">
<path d="M1930 2882 c-8 -3 -44 -19 -80 -35 -36 -17 -68 -30 -72 -29 -5 1 -8
-2 -8 -8 0 -5 -4 -10 -10 -10 -5 0 -56 -22 -113 -50 -57 -27 -109 -50 -115
-50 -7 0 -12 -5 -12 -10 0 -6 -3 -9 -7 -8 -5 1 -39 -13 -78 -31 -38 -18 -74
-34 -80 -36 -5 -1 -28 -10 -50 -20 -22 -9 -44 -18 -50 -19 -5 -2 -30 -12 -55
-23 -60 -28 -83 -36 -92 -35 -5 1 -8 -2 -8 -8 0 -5 -3 -9 -7 -8 -5 1 -21 -5
-38 -12 -16 -7 -32 -14 -35 -15 -3 -1 -18 -8 -35 -15 -16 -7 -32 -14 -35 -15
-25 -8 -48 -22 -64 -37 -11 -10 -25 -18 -32 -18 -7 0 -17 -6 -21 -13 -4 -6
-26 -25 -48 -41 -22 -16 -47 -37 -56 -45 -28 -27 -72 -56 -81 -54 -4 2 -8 -5
-8 -14 0 -9 -3 -14 -6 -10 -4 3 -15 -4 -25 -16 -10 -12 -18 -18 -19 -13 0 5
-8 0 -17 -10 -10 -11 -34 -31 -53 -44 -36 -25 -50 -35 -87 -70 -13 -11 -23
-17 -23 -14 0 4 -10 -4 -22 -17 -13 -14 -27 -25 -31 -26 -4 -1 -25 -16 -46
-34 -21 -17 -44 -35 -51 -39 -10 -6 -7 -14 9 -31 11 -12 21 -19 21 -15 0 4 6
1 14 -6 13 -12 90 -63 175 -115 20 -13 32 -23 26 -23 -5 0 6 -8 25 -17 19 -10
44 -25 54 -35 11 -10 24 -18 28 -18 5 0 18 -9 30 -20 12 -11 28 -20 35 -20 7
0 13 -4 13 -10 0 -5 8 -10 18 -10 9 0 23 -9 30 -21 7 -12 16 -18 19 -15 3 3
20 -6 38 -19 17 -14 37 -25 43 -25 7 0 12 -5 12 -11 0 -5 4 -8 9 -5 5 4 11 2
13 -3 1 -4 25 -18 52 -30 40 -17 47 -25 43 -42 -3 -12 0 -22 9 -26 8 -3 12 -9
9 -13 -4 -7 17 -92 32 -130 3 -8 5 -19 4 -24 -1 -4 4 -14 10 -22 6 -8 8 -14 4
-14 -4 0 -2 -7 5 -15 6 -8 9 -19 6 -24 -4 -5 -3 -12 2 -15 14 -9 12 -63 -3
-76 -8 -7 -15 -19 -15 -26 0 -8 -3 -14 -8 -14 -4 0 -14 -15 -21 -32 -8 -18
-21 -39 -28 -46 -30 -31 4 -40 54 -14 29 15 45 5 30 -21 -7 -12 -18 -27 -25
-35 -7 -7 -10 -17 -7 -21 2 -5 -5 -17 -15 -29 -11 -12 -20 -28 -20 -36 0 -8
-4 -17 -9 -20 -5 -3 -24 -36 -43 -73 -18 -38 -36 -70 -41 -71 -4 -2 -5 -8 -1
-13 3 -5 0 -9 -6 -9 -6 0 -9 -4 -5 -9 3 -5 1 -12 -5 -16 -20 -12 -10 -26 10
-15 11 6 20 8 20 5 0 -3 10 0 23 7 12 7 25 11 30 10 4 -1 7 3 7 10 0 6 3 8 6
5 4 -3 16 -1 28 5 11 7 26 13 32 14 5 1 30 11 54 23 24 11 52 21 62 21 10 0
18 5 18 11 0 6 7 9 15 5 8 -3 15 -2 15 3 0 7 36 22 62 25 3 1 10 4 14 9 4 4
16 7 26 7 10 0 18 5 18 11 0 5 4 8 9 4 5 -3 15 0 23 7 7 7 20 13 28 13 8 0 19
15 25 33 5 17 13 32 18 32 4 0 6 4 2 9 -3 5 -1 12 4 15 5 4 12 -3 16 -14 3
-11 11 -20 16 -20 5 0 9 -7 9 -15 0 -9 6 -18 14 -21 8 -3 17 -16 20 -30 4 -13
11 -24 16 -24 6 0 10 -7 10 -15 0 -8 4 -15 9 -15 5 0 14 -14 21 -30 7 -17 15
-28 18 -25 3 3 11 -5 17 -18 13 -24 3 -47 -21 -47 -8 0 -14 -5 -14 -12 0 -6
-3 -9 -6 -5 -4 3 -14 -2 -23 -13 -9 -11 -22 -20 -30 -22 -7 -2 -25 -13 -39
-25 -13 -13 -28 -20 -33 -17 -5 3 -9 1 -9 -4 0 -9 -41 -40 -149 -111 -20 -13
-41 -31 -48 -40 -7 -9 -13 -12 -13 -8 0 4 -10 -1 -22 -13 -12 -11 -28 -20 -35
-20 -14 0 -37 -37 -26 -42 5 -2 40 -4 78 -3 95 0 110 -17 51 -60 -22 -16 -47
-35 -54 -42 -7 -7 -18 -13 -23 -13 -6 0 -7 -5 -4 -10 3 -6 1 -10 -5 -10 -6 0
-19 -8 -30 -18 -28 -26 -11 -43 39 -39 23 2 44 0 47 -4 3 -5 15 -4 28 1 15 5
27 5 35 -3 6 -6 11 -7 11 -1 0 7 147 10 170 3 13 -3 144 2 152 7 4 3 8 1 8 -3
0 -5 84 -9 188 -8 l187 0 88 58 c48 31 92 57 97 57 6 0 10 5 10 10 0 6 7 10
15 10 8 0 23 8 33 18 10 9 34 26 55 37 20 11 37 23 37 27 0 5 3 7 8 7 20 -3
32 2 26 12 -4 7 -1 10 7 7 7 -2 22 4 33 13 10 10 23 16 28 13 4 -3 8 0 8 6 0
6 8 14 18 18 11 4 44 23 76 42 l56 35 -5 70 c-3 39 -7 84 -9 100 -3 17 -8 62
-12 100 -3 39 -11 75 -16 82 -6 7 -5 14 2 18 6 4 7 12 1 23 -7 12 -3 22 13 37
80 72 97 85 106 85 5 0 10 4 10 9 0 5 9 13 21 16 11 4 18 9 15 12 -3 3 4 13
15 22 11 9 22 30 24 46 2 17 4 30 5 30 1 0 3 29 4 65 4 92 -31 155 -109 196
-17 8 -31 3 -87 -34 -38 -25 -68 -49 -68 -55 0 -5 -13 3 -29 20 -15 16 -46 43
-67 59 -21 16 -45 35 -52 42 -7 6 -17 12 -21 12 -7 0 -31 19 -92 75 -9 8 -20
15 -25 15 -5 0 -16 9 -24 20 -8 11 -20 20 -26 20 -7 0 -15 7 -18 16 -3 8 -10
13 -14 10 -5 -3 -15 4 -22 15 -8 10 -19 19 -24 19 -5 0 -16 8 -25 18 -9 9 -33
28 -53 42 -21 14 -38 28 -38 33 0 4 -7 7 -16 7 -8 0 -12 5 -9 10 3 6 0 10 -7
10 -7 0 -29 14 -48 30 -19 16 -41 30 -48 30 -7 0 -10 5 -7 10 3 6 2 10 -3 10
-6 0 -32 18 -58 40 -27 22 -55 40 -63 40 -8 0 -12 3 -8 6 3 3 -4 15 -15 26
-11 11 -22 17 -24 15 -3 -3 -26 15 -51 39 -42 41 -44 46 -39 85 6 46 27 122
36 129 7 6 40 81 42 95 1 6 8 16 15 23 7 7 13 19 13 26 0 7 14 28 30 46 17 18
30 30 30 25 0 -4 9 0 20 10 11 10 20 14 20 10 0 -4 9 0 20 10 11 10 20 15 20
11 0 -3 18 5 40 19 22 14 40 22 40 19 0 -4 9 1 20 11 11 10 20 15 20 11 0 -4
13 2 29 13 16 12 33 21 38 21 5 0 15 6 22 13 6 6 15 12 19 12 24 1 251 123
255 138 3 9 1 15 -4 11 -5 -3 -9 -1 -9 5 0 5 -7 17 -16 26 -12 12 -14 19 -6
27 18 18 -5 31 -158 92 -156 63 -167 66 -190 58z"/>
</g>
</svg>
