<?xml version="1.0" standalone="no"?>
<!DOCTYPE svg PUBLIC "-//W3C//DTD SVG 20010904//EN"
 "http://www.w3.org/TR/2001/REC-SVG-20010904/DTD/svg10.dtd">
<svg version="1.0" xmlns="http://www.w3.org/2000/svg"
 width="300.000000pt" height="300.000000pt" viewBox="0 0 300.000000 300.000000"
 preserveAspectRatio="xMidYMid meet">
<metadata>
Created by potrace 1.14, written by Peter Selinger 2001-2017
</metadata>
<g transform="translate(0.000000,300.000000) scale(0.100000,-0.100000)"
fill="#000000" stroke="none">
<path d="M1911 2843 c-12 -27 -27 -56 -32 -65 -12 -24 -6 -23 79 12 40 16 80
27 90 24 9 -2 6 0 -8 7 -14 6 -33 15 -42 20 -13 6 -16 5 -12 -4 5 -14 -44 -43
-54 -32 -3 3 0 16 6 30 30 66 6 73 -27 8z"/>
<path d="M1773 2643 c64 -2 170 -2 235 0 64 1 11 3 -118 3 -129 0 -182 -2
-117 -3z"/>
<path d="M1398 2543 c7 -3 16 -2 19 1 4 3 -2 6 -13 5 -11 0 -14 -3 -6 -6z"/>
<path d="M1310 2530 c0 -6 23 -47 50 -91 28 -44 50 -86 50 -92 0 -7 -5 -4 -11
6 -6 9 -14 15 -19 12 -5 -3 -14 3 -19 14 -16 28 -39 33 -52 10 -8 -15 -7 -24
2 -35 14 -17 5 -18 -23 -3 -15 8 -19 8 -14 0 10 -15 67 -44 74 -37 3 3 0 6 -6
6 -7 0 -12 4 -12 9 0 5 9 7 21 4 11 -3 18 -11 15 -18 -6 -16 16 -36 64 -60
l34 -18 -34 -29 c-19 -16 -144 -101 -278 -190 l-243 -162 6 -44 c4 -39 3 -43
-11 -31 -13 11 -15 9 -10 -12 4 -13 11 -73 16 -134 5 -60 13 -120 16 -132 5
-18 2 -23 -13 -23 -20 0 -64 26 -307 183 -128 83 -153 95 -180 90 -30 -5 -30
-5 -11 11 19 16 19 17 -15 9 -19 -4 -117 -7 -218 -5 l-182 3 0 -885 0 -886
1500 0 1500 0 0 860 0 860 -392 0 c-459 0 -674 12 -695 38 -13 15 -13 14 -3
-5 6 -13 7 -23 4 -23 -4 0 12 -15 35 -32 24 -18 90 -70 146 -114 57 -45 165
-131 241 -190 133 -104 150 -118 157 -138 2 -5 35 14 75 43 l72 51 33 -16 c55
-29 86 -56 80 -71 -3 -8 4 -24 16 -37 21 -22 21 -27 11 -107 -5 -46 -10 -88
-10 -94 0 -14 -200 -181 -211 -177 -12 3 -12 -15 0 -20 5 -2 16 -88 25 -192 9
-103 18 -193 19 -199 2 -10 -5 -15 -308 -202 -104 -64 -214 -132 -242 -151
-29 -19 -57 -34 -61 -34 -9 0 -79 92 -142 187 -19 29 -38 53 -42 53 -10 0 61
-112 111 -177 23 -28 41 -54 41 -57 0 -7 -784 3 -817 10 -13 2 -23 8 -23 12 0
4 43 41 95 82 64 51 93 80 91 92 -2 11 1 15 10 11 8 -3 30 9 49 26 20 17 40
31 45 31 6 0 10 5 10 10 0 6 -8 10 -18 10 -10 0 -23 5 -30 12 -8 8 -12 9 -12
1 0 -6 -15 -16 -32 -21 -124 -37 -178 -55 -178 -60 0 -2 23 -2 50 2 54 7 82 0
59 -15 -8 -5 -42 -9 -76 -9 -74 0 -81 13 -26 50 81 55 419 293 431 304 10 10
-4 37 -75 141 l-88 129 -8 -35 c-5 -19 -12 -40 -16 -48 -7 -15 -520 -225 -529
-217 -2 3 18 47 46 98 101 187 142 268 142 278 0 5 -23 1 -51 -11 -29 -11 -53
-18 -55 -16 -2 1 22 45 52 95 l56 93 -48 147 c-26 82 -49 173 -51 207 -2 33
-10 121 -17 195 l-14 135 32 40 c36 47 33 44 127 116 67 51 119 86 314 215 64
41 100 59 91 45 -7 -11 42 -44 54 -36 5 3 19 1 30 -5 17 -9 20 -8 21 7 0 16 1
15 8 -2 7 -17 14 -8 47 55 21 41 43 84 49 95 6 11 21 25 33 31 22 11 22 12 3
17 -11 3 -25 -1 -32 -9 -6 -7 -36 -25 -68 -39 -31 -15 -72 -35 -92 -46 -47
-25 -51 -24 -43 6 6 26 -18 61 -35 50 -12 -7 -48 41 -91 120 -18 33 -37 66
-43 73 -11 15 -27 16 -27 2z m96 -231 c19 -22 19 -22 -3 -10 -13 6 -23 16 -23
21 0 15 5 12 26 -11z m62 -29 c7 -13 8 -20 2 -20 -6 0 -13 7 -16 15 -4 8 -11
12 -17 8 -6 -3 -7 -1 -3 5 10 17 19 15 34 -8z m-520 -420 c-13 -20 -28 -27
-28 -12 0 10 22 32 32 32 5 0 3 -9 -4 -20z m1038 -152 l19 -21 -30 18 c-41 26
-40 25 -23 25 8 0 23 -10 34 -22z m122 15 c-10 -2 -26 -2 -35 0 -10 3 -2 5 17
5 19 0 27 -2 18 -5z"/>
<path d="M1206 2475 c-33 -14 -70 -25 -83 -25 -15 0 -22 -4 -17 -11 3 -6 19
-9 34 -5 16 3 52 -3 84 -14 30 -11 60 -20 66 -20 6 0 9 21 8 50 -3 59 -7 60
-92 25z"/>
<path d="M1844 2425 c-24 -18 -7 -19 26 0 16 9 19 14 9 15 -8 0 -24 -7 -35
-15z"/>
<path d="M1748 2399 c-18 -11 22 -19 47 -9 14 5 25 11 25 13 0 6 -61 3 -72 -4z"/>
<path d="M1595 2350 c-3 -5 -1 -10 4 -10 6 0 11 5 11 10 0 6 -2 10 -4 10 -3 0
-8 -4 -11 -10z"/>
<path d="M1560 1970 c0 -5 7 -10 15 -10 8 0 15 5 15 10 0 6 -7 10 -15 10 -8 0
-15 -4 -15 -10z"/>
<path d="M1390 1940 c-95 -31 -314 -99 -344 -106 -18 -4 -31 -2 -36 6 -6 10
-13 8 -31 -9 -12 -11 -20 -24 -16 -27 8 -9 119 20 297 77 153 49 229 79 200
78 -8 0 -40 -9 -70 -19z"/>
<path d="M1345 1795 c-175 -137 -233 -178 -276 -200 -26 -14 -50 -35 -58 -51
-10 -22 -14 -25 -22 -13 -6 10 -9 7 -9 -13 0 -16 4 -28 9 -28 11 0 73 48 155
120 55 48 216 181 263 217 9 7 15 15 12 17 -2 3 -36 -20 -74 -49z"/>
<path d="M1860 1765 c0 -2 10 -10 23 -16 20 -11 21 -11 8 4 -13 16 -31 23 -31
12z"/>
<path d="M1375 1529 c-4 -6 -5 -12 -2 -15 2 -3 7 2 10 11 7 17 1 20 -8 4z"/>
<path d="M1531 1494 c0 -11 3 -14 6 -6 3 7 2 16 -1 19 -3 4 -6 -2 -5 -13z"/>
<path d="M2521 1024 c0 -11 3 -14 6 -6 3 7 2 16 -1 19 -3 4 -6 -2 -5 -13z"/>
<path d="M2542 880 c0 -14 2 -19 5 -12 2 6 2 18 0 25 -3 6 -5 1 -5 -13z"/>
<path d="M1563 559 c-18 -12 -33 -24 -33 -28 0 -4 -15 -15 -32 -26 -18 -10
-37 -25 -41 -32 -5 -7 -14 -10 -20 -7 -7 4 -9 4 -5 -1 4 -4 -6 -27 -23 -51
-27 -40 -28 -44 -11 -44 11 0 22 7 26 15 3 8 13 15 22 15 9 0 27 9 41 20 37
29 51 25 22 -7 -24 -26 -24 -26 15 3 22 16 56 44 75 61 20 18 39 33 43 33 8 0
-2 41 -15 58 -13 17 -27 15 -64 -9z"/>
</g>
</svg>
